Coordinates
version=1
nRows=9
nColumns=24
inDegrees=yes

Units are S.I. units (second, meters, Newtons, ...)
Angles are in degrees.

endheader
time	pelvis_tilt	pelvis_list	pelvis_rotation	pelvis_tx	pelvis_ty	pelvis_tz	hip_flexion_r	hip_adduction_r	hip_rotation_r	knee_angle_r	ankle_angle_r	subtalar_angle_r	mtp_angle_r	hip_flexion_l	hip_adduction_l	hip_rotation_l	knee_angle_l	ankle_angle_l	subtalar_angle_l	mtp_angle_l	lumbar_extension	lumbar_bending	lumbar_rotation
      1.14533333	     -0.51152185	      6.74443264	      1.13950853	      0.13201812	      0.99392284	      0.29111710	     23.15811873	     -7.08364135	     -0.52652550	    -71.57601474	      3.25804154	    -10.33379110	     -2.18596047	      9.38409308	     12.14167100	      5.05107991	    -15.00344983	      3.04744146	    -13.65302674	      2.01246229	      1.30615990	     -4.13109061	      3.64051781
      1.14950000	     -0.43896027	      6.61957869	      1.15186731	      0.13719437	      0.99480514	      0.29113836	     23.58385088	     -6.88681739	     -0.41741017	    -71.10038657	      3.83955127	    -10.58746950	     -2.28391703	      8.77102641	     12.00337899	      5.25456679	    -14.64046200	      3.13599005	    -13.70891332	      1.97079245	      1.18719197	     -3.99635352	      3.56423372
      1.15366667	     -0.36767954	      6.50547640	      1.16608631	      0.14236119	      0.99564130	      0.29115553	     23.99385529	     -6.70806340	     -0.31433308	    -70.56530475	      4.39237899	    -10.85181582	     -2.43984151	      8.15270335	     11.87735071	      5.47509887	    -14.25927627	      3.20674725	    -13.82162710	      1.90332510	      1.07691407	     -3.87310150	      3.46787914
      1.15783333	     -0.33276401	      6.38610924	      1.18511056	      0.14752392	      0.99637124	      0.29116117	     24.42661326	     -6.53034873	     -0.22237774	    -69.97557329	      4.94981782	    -11.08690697	     -2.63040422	      7.58579786	     11.74439121	      5.67614780	    -13.89885165	      3.28943297	    -13.92429937	      1.81992123	      1.01555495	     -3.72165865	      3.38073311
      1.16200000	     -0.27375497	      6.24502536	      1.20540470	      0.15269236	      0.99712925	      0.29119235	     24.79908320	     -6.32587293	     -0.14133946	    -69.29888078	      5.48120227	    -11.30768922	     -2.85294980	      6.99933338	     11.58306693	      5.87189556	    -13.55206126	      3.37236443	    -13.99584372	      1.72268680	      0.92140612	     -3.56389493	      3.29420923
      1.16616667	     -0.29058043	      6.10611872	      1.23333648	      0.15780436	      0.99770782	      0.29121567	     25.24849223	     -6.12792176	     -0.05870668	    -68.58240171	      6.02047756	    -11.45377325	     -2.92169290	      6.52710474	     11.42131382	      6.01881752	    -13.25836941	      3.48619877	    -14.01216152	      1.69151616	      0.90918293	     -3.39340961	      3.25285395
      1.17033333	     -0.25086230	      5.97653967	      1.26151132	      0.16292765	      0.99832447	      0.29125494	     25.60560998	     -5.93933198	      0.02045689	    -67.79552131	      6.54800186	    -11.67206533	     -3.01168919	      5.98354285	     11.26815447	      6.19340813	    -12.94558641	      3.59739469	    -14.05597542	      1.65211054	      0.83508455	     -3.25943771	      3.18423206
      1.17450000	     -0.22468657	      5.84643169	      1.29029942	      0.16804616	      0.99888143	      0.29129326	     25.95874180	     -5.75524796	      0.09080449	    -66.95143146	      7.02680858	    -11.89032964	     -3.10346124	      5.45508973	     11.11291813	      6.36336209	    -12.63038483	      3.70471045	    -14.10469618	      1.61291091	      0.77051693	     -3.10996162	      3.10841268
      1.17866667	     -0.16848658	      5.76163829	      1.30657847	      0.17317002	      0.99940794	      0.29131923	     26.26962544	     -5.62732779	      0.16914491	    -66.07040492	      7.43575208	    -12.18198956	     -3.31768759	      4.86831275	     11.00858731	      6.56885592	    -12.26010168	      3.78779786	    -14.21975950	      1.52471631	      0.66377894	     -3.01388072	      2.98284161
